<svg width="84" height="188" viewBox="0 0 84 188" fill="none" xmlns="http://www.w3.org/2000/svg">
<circle cx="3" cy="3" r="3" fill="#003A7A"/>
<circle cx="29" cy="3" r="3" fill="#003A7A"/>
<circle cx="55" cy="3" r="3" fill="#003A7A"/>
<circle cx="81" cy="3" r="3" fill="#003A7A"/>
<circle cx="3" cy="29" r="3" fill="#003A7A"/>
<circle cx="29" cy="29" r="3" fill="#003A7A"/>
<circle cx="55" cy="29" r="3" fill="#003A7A"/>
<circle cx="81" cy="29" r="3" fill="#003A7A"/>
<circle cx="3" cy="55" r="3" fill="#003A7A"/>
<circle cx="29" cy="55" r="3" fill="#003A7A"/>
<circle cx="55" cy="55" r="3" fill="#003A7A"/>
<circle cx="81" cy="55" r="3" fill="#003A7A"/>
<circle cx="3" cy="81" r="3" fill="#003A7A"/>
<circle cx="29" cy="81" r="3" fill="#003A7A"/>
<circle cx="55" cy="81" r="3" fill="#003A7A"/>
<circle cx="81" cy="81" r="3" fill="#003A7A"/>
<circle cx="3" cy="107" r="3" fill="#003A7A"/>
<circle cx="29" cy="107" r="3" fill="#003A7A"/>
<circle cx="55" cy="107" r="3" fill="#003A7A"/>
<circle cx="81" cy="107" r="3" fill="#003A7A"/>
<circle cx="3" cy="133" r="3" fill="#C5D1D6"/>
<circle cx="29" cy="133" r="3" fill="#C5D1D6"/>
<circle cx="55" cy="133" r="3" fill="#C5D1D6"/>
<circle cx="81" cy="133" r="3" fill="#C5D1D6"/>
<circle cx="3" cy="159" r="3" fill="#C5D1D6"/>
<circle cx="29" cy="159" r="3" fill="#C5D1D6"/>
<circle cx="55" cy="159" r="3" fill="#C5D1D6"/>
<circle cx="81" cy="159" r="3" fill="#C5D1D6"/>
<circle cx="3" cy="185" r="3" fill="#C5D1D6"/>
<circle cx="29" cy="185" r="3" fill="#C5D1D6"/>
<circle cx="55" cy="185" r="3" fill="#C5D1D6"/>
<circle cx="81" cy="185" r="3" fill="#C5D1D6"/>
</svg>
