<svg width="131" height="40" viewBox="0 0 131 40" fill="none" xmlns="http://www.w3.org/2000/svg">
<path d="M0 28.6667V11.2122H7.5682C8.89773 11.2122 10.0142 11.3911 10.9176 11.7491C11.8267 12.107 12.5113 12.6127 12.9716 13.2661C13.4375 13.9196 13.6705 14.6894 13.6705 15.5758C13.6705 16.2178 13.5284 16.803 13.2443 17.3315C12.9659 17.8599 12.5739 18.303 12.0682 18.661C11.5625 19.0133 10.9716 19.2576 10.2955 19.394V19.5644C11.0455 19.5928 11.7273 19.7832 12.3409 20.1354C12.9545 20.482 13.4432 20.9622 13.8068 21.5758C14.1705 22.1838 14.3523 22.8996 14.3523 23.7235C14.3523 24.678 14.1023 25.5275 13.6023 26.2718C13.1079 27.0161 12.4034 27.6013 11.4887 28.0275C10.5739 28.4536 9.48293 28.6667 8.21593 28.6667H0ZM4.73863 24.8826H6.95453C7.75 24.8826 8.34659 24.7349 8.74433 24.4394C9.14206 24.1383 9.34093 23.6951 9.34093 23.1099C9.34093 22.7008 9.24713 22.3542 9.05966 22.0701C8.87213 21.786 8.60513 21.5701 8.25853 21.4224C7.9176 21.2746 7.50566 21.2008 7.02273 21.2008H4.73863V24.8826ZM4.73863 18.269H6.6818C7.0966 18.269 7.46306 18.2036 7.78126 18.073C8.09939 17.9423 8.34659 17.7548 8.52273 17.5104C8.70453 17.2604 8.79546 16.9565 8.79546 16.5985C8.79546 16.0588 8.60226 15.6468 8.21593 15.3627C7.82953 15.073 7.34093 14.928 6.75 14.928H4.73863V18.269ZM22.4063 28.9054C20.9858 28.9054 19.7699 28.6241 18.7585 28.0616C17.7471 27.4934 16.9716 26.7036 16.4318 25.6923C15.8921 24.6752 15.6221 23.4962 15.6221 22.1554C15.6221 20.8144 15.8921 19.6383 16.4318 18.6269C16.9716 17.6099 17.7471 16.8201 18.7585 16.2576C19.7699 15.6894 20.9858 15.4054 22.4063 15.4054C23.8267 15.4054 25.0426 15.6894 26.054 16.2576C27.0653 16.8201 27.8409 17.6099 28.3806 18.6269C28.9204 19.6383 29.1903 20.8144 29.1903 22.1554C29.1903 23.4962 28.9204 24.6752 28.3806 25.6923C27.8409 26.7036 27.0653 27.4934 26.054 28.0616C25.0426 28.6241 23.8267 28.9054 22.4063 28.9054ZM22.4403 25.428C22.8381 25.428 23.1818 25.2946 23.4716 25.0275C23.7613 24.7604 23.9858 24.3798 24.1449 23.8854C24.304 23.3911 24.3835 22.803 24.3835 22.1212C24.3835 21.4338 24.304 20.8457 24.1449 20.357C23.9858 19.8627 23.7613 19.482 23.4716 19.215C23.1818 18.948 22.8381 18.8144 22.4403 18.8144C22.0199 18.8144 21.6591 18.948 21.3579 19.215C21.0568 19.482 20.8267 19.8627 20.6676 20.357C20.5085 20.8457 20.429 21.4338 20.429 22.1212C20.429 22.803 20.5085 23.3911 20.6676 23.8854C20.8267 24.3798 21.0568 24.7604 21.3579 25.0275C21.6591 25.2946 22.0199 25.428 22.4403 25.428ZM35.804 21.303V28.6667H31.0994V15.5758H35.5653V18.0644H35.7017C35.9858 17.2349 36.4858 16.5843 37.2017 16.1127C37.9232 15.6411 38.7642 15.4054 39.7244 15.4054C40.6506 15.4054 41.4545 15.6184 42.1363 16.0446C42.8238 16.465 43.3551 17.0446 43.7301 17.7832C44.1108 18.5218 44.2982 19.3656 44.2926 20.3144V28.6667H39.588V21.303C39.5937 20.6554 39.429 20.1468 39.0937 19.7775C38.7642 19.4082 38.304 19.2235 37.713 19.2235C37.3267 19.2235 36.9886 19.3088 36.6988 19.4792C36.4148 19.644 36.196 19.8826 36.0426 20.1951C35.8892 20.5019 35.8096 20.8712 35.804 21.303ZM55.1036 22.9394V15.5758H59.8082V28.6667H55.3423V26.178H55.2059C54.9218 27.0133 54.4247 27.6667 53.7144 28.1383C53.0042 28.6042 52.1605 28.8371 51.1832 28.8371C50.2684 28.8371 49.4673 28.6269 48.7798 28.2065C48.098 27.786 47.5667 27.2065 47.186 26.4678C46.811 25.7291 46.6207 24.8826 46.615 23.928V15.5758H51.3196V22.9394C51.3252 23.5872 51.49 24.0957 51.8139 24.465C52.1434 24.8343 52.6036 25.019 53.1946 25.019C53.5866 25.019 53.9247 24.9366 54.2088 24.7718C54.4986 24.6014 54.7202 24.3627 54.8736 24.0559C55.0326 23.7434 55.1094 23.3712 55.1036 22.9394ZM62.201 28.6667V15.5758H66.667V18.0644H66.803C67.0756 17.2462 67.5416 16.5985 68.201 16.1212C68.8603 15.644 69.6443 15.4054 70.553 15.4054C71.4736 15.4054 72.2663 15.6496 72.931 16.1383C73.5956 16.6212 73.9963 17.2633 74.133 18.0644H74.269C74.491 17.2633 74.9623 16.6212 75.6836 16.1383C76.4056 15.6496 77.2523 15.4054 78.2236 15.4054C79.4796 15.4054 80.4963 15.8088 81.2749 16.6156C82.059 17.4224 82.451 18.4962 82.451 19.8372V28.6667H77.7463V21.0304C77.7463 20.4565 77.6016 20.0076 77.3116 19.6838C77.0223 19.3542 76.633 19.1894 76.1443 19.1894C75.661 19.1894 75.2776 19.3542 74.9936 19.6838C74.715 20.0076 74.5756 20.4565 74.5756 21.0304V28.6667H70.0756V21.0304C70.0756 20.4565 69.931 20.0076 69.6416 19.6838C69.3516 19.3542 68.9623 19.1894 68.4736 19.1894C68.1496 19.1894 67.8716 19.2633 67.6383 19.411C67.4056 19.5588 67.2236 19.7718 67.093 20.0502C66.9683 20.323 66.9056 20.6496 66.9056 21.0304V28.6667H62.201Z" fill="white"/>
<path d="M93.0197 28V24.9696L98.8077 20.1818C99.1917 19.8636 99.5197 19.5656 99.7924 19.2878C100.07 19.005 100.282 18.7146 100.429 18.4166C100.58 18.1186 100.656 17.7878 100.656 17.4242C100.656 17.0252 100.57 16.6843 100.399 16.4015C100.232 16.1186 99.9997 15.9015 99.7017 15.75C99.4037 15.5934 99.0604 15.5151 98.6717 15.5151C98.2824 15.5151 97.939 15.5934 97.641 15.75C97.3484 15.9065 97.121 16.1363 96.959 16.4394C96.7977 16.7424 96.717 17.1111 96.717 17.5454H92.717C92.717 16.4545 92.9617 15.5151 93.4517 14.7272C93.9417 13.9394 94.6337 13.3333 95.5277 12.909C96.4217 12.4848 97.4697 12.2727 98.6717 12.2727C99.9137 12.2727 100.99 12.4722 101.899 12.8712C102.813 13.2651 103.518 13.8207 104.012 14.5378C104.512 15.255 104.762 16.0959 104.762 17.0606C104.762 17.6565 104.638 18.25 104.391 18.8409C104.144 19.4268 103.699 20.0757 103.058 20.7878C102.416 21.5 101.505 22.3484 100.323 23.3333L98.8684 24.5454V24.6363H104.929V28H93.0197ZM106.327 25.5757V22.303L112.569 12.4848H115.539V16.8484H113.842L110.478 22.1818V22.303H119.69V25.5757H106.327ZM113.872 28V24.5757L113.963 23.1515V12.4848H117.902V28H113.872Z" fill="white"/>
<path d="M97.4803 7.27207C96.6996 6.49104 96.6936 5.21579 97.5489 4.51661C100.078 2.44901 103.083 1.02551 106.306 0.384304C110.186 -0.387401 114.208 0.0086654 117.862 1.52242C121.516 3.03617 124.64 5.59962 126.838 8.8886C129.036 12.1776 130.208 16.0444 130.208 20C130.208 23.9556 129.036 27.8224 126.838 31.1114C124.64 34.4004 121.516 36.9639 117.862 38.4776C114.208 39.9913 110.186 40.3874 106.306 39.6157C103.083 38.9745 100.078 37.551 97.5489 35.4834C96.6936 34.7842 96.6996 33.509 97.4803 32.7279C98.2616 31.9469 99.5209 31.9585 100.394 32.636C102.35 34.1555 104.64 35.2058 107.087 35.6925C110.19 36.3099 113.408 35.9931 116.331 34.7821C119.255 33.5711 121.754 31.5203 123.512 28.8891C125.27 26.2579 126.208 23.1645 126.208 20C126.208 16.8355 125.27 13.7421 123.512 11.1109C121.754 8.47967 119.255 6.42893 116.331 5.21793C113.408 4.00693 110.19 3.69008 107.087 4.30744C104.64 4.79422 102.35 5.84456 100.394 7.36401C99.5209 8.0416 98.2616 8.05314 97.4803 7.27207Z" fill="white"/>
</svg>
