<svg width="131" height="40" viewBox="0 0 131 40" fill="none" xmlns="http://www.w3.org/2000/svg">
<path d="M0 28.6669V11.2124H7.5682C8.89773 11.2124 10.0142 11.3913 10.9176 11.7493C11.8267 12.1073 12.5113 12.6129 12.9716 13.2663C13.4375 13.9198 13.6705 14.6897 13.6705 15.576C13.6705 16.2181 13.5284 16.8033 13.2443 17.3317C12.9659 17.8601 12.5739 18.3033 12.0682 18.6613C11.5625 19.0135 10.9716 19.2579 10.2955 19.3942V19.5647C11.0455 19.5931 11.7273 19.7834 12.3409 20.1357C12.9545 20.4823 13.4432 20.9624 13.8068 21.576C14.1705 22.184 14.3523 22.8999 14.3523 23.7237C14.3523 24.6783 14.1023 25.5277 13.6023 26.2721C13.1079 27.0163 12.4034 27.6016 11.4887 28.0277C10.5739 28.4539 9.48293 28.6669 8.21593 28.6669H0ZM4.73863 24.8829H6.95453C7.75 24.8829 8.34659 24.7351 8.74433 24.4397C9.14206 24.1385 9.34093 23.6953 9.34093 23.1101C9.34093 22.701 9.24713 22.3544 9.05966 22.0703C8.87213 21.7863 8.60513 21.5703 8.25853 21.4226C7.9176 21.2749 7.50566 21.201 7.02273 21.201H4.73863V24.8829ZM4.73863 18.2692H6.6818C7.0966 18.2692 7.46306 18.2039 7.78126 18.0732C8.09939 17.9425 8.34659 17.755 8.52273 17.5107C8.70453 17.2607 8.79546 16.9567 8.79546 16.5987C8.79546 16.059 8.60226 15.6471 8.21593 15.3629C7.82953 15.0732 7.34093 14.9283 6.75 14.9283H4.73863V18.2692ZM22.4063 28.9056C20.9858 28.9056 19.7699 28.6243 18.7585 28.0618C17.7471 27.4937 16.9716 26.7039 16.4318 25.6925C15.8921 24.6755 15.6221 23.4965 15.6221 22.1556C15.6221 20.8147 15.8921 19.6385 16.4318 18.6271C16.9716 17.6101 17.7471 16.8203 18.7585 16.2579C19.7699 15.6897 20.9858 15.4056 22.4063 15.4056C23.8267 15.4056 25.0426 15.6897 26.054 16.2579C27.0653 16.8203 27.8409 17.6101 28.3806 18.6271C28.9204 19.6385 29.1903 20.8147 29.1903 22.1556C29.1903 23.4965 28.9204 24.6755 28.3806 25.6925C27.8409 26.7039 27.0653 27.4937 26.054 28.0618C25.0426 28.6243 23.8267 28.9056 22.4063 28.9056ZM22.4403 25.4283C22.8381 25.4283 23.1818 25.2948 23.4716 25.0277C23.7613 24.7607 23.9858 24.38 24.1449 23.8857C24.304 23.3913 24.3835 22.8033 24.3835 22.1215C24.3835 21.434 24.304 20.8459 24.1449 20.3573C23.9858 19.8629 23.7613 19.4823 23.4716 19.2152C23.1818 18.9482 22.8381 18.8147 22.4403 18.8147C22.0199 18.8147 21.6591 18.9482 21.3579 19.2152C21.0568 19.4823 20.8267 19.8629 20.6676 20.3573C20.5085 20.8459 20.429 21.434 20.429 22.1215C20.429 22.8033 20.5085 23.3913 20.6676 23.8857C20.8267 24.38 21.0568 24.7607 21.3579 25.0277C21.6591 25.2948 22.0199 25.4283 22.4403 25.4283ZM35.804 21.3033V28.6669H31.0994V15.576H35.5653V18.0647H35.7017C35.9858 17.2351 36.4858 16.5845 37.2017 16.1129C37.9232 15.6413 38.7642 15.4056 39.7244 15.4056C40.6506 15.4056 41.4545 15.6187 42.1363 16.0448C42.8238 16.4652 43.3551 17.0448 43.7301 17.7834C44.1108 18.5221 44.2982 19.3658 44.2926 20.3147V28.6669H39.588V21.3033C39.5937 20.6556 39.429 20.1471 39.0937 19.7777C38.7642 19.4084 38.304 19.2237 37.713 19.2237C37.3267 19.2237 36.9886 19.309 36.6988 19.4795C36.4148 19.6442 36.196 19.8829 36.0426 20.1953C35.8892 20.5021 35.8096 20.8715 35.804 21.3033ZM55.1036 22.9397V15.576H59.8082V28.6669H55.3423V26.1783H55.2059C54.9218 27.0135 54.4247 27.6669 53.7144 28.1385C53.0042 28.6044 52.1605 28.8374 51.1832 28.8374C50.2684 28.8374 49.4673 28.6271 48.7798 28.2067C48.098 27.7863 47.5667 27.2067 47.186 26.4681C46.811 25.7294 46.6207 24.8829 46.615 23.9283V15.576H51.3196V22.9397C51.3252 23.5874 51.49 24.0959 51.8139 24.4652C52.1434 24.8345 52.6036 25.0192 53.1946 25.0192C53.5866 25.0192 53.9247 24.9368 54.2088 24.7721C54.4986 24.6016 54.7202 24.3629 54.8736 24.0561C55.0326 23.7437 55.1094 23.3715 55.1036 22.9397ZM62.201 28.6669V15.576H66.667V18.0647H66.803C67.0756 17.2465 67.5416 16.5987 68.201 16.1215C68.8603 15.6442 69.6443 15.4056 70.553 15.4056C71.4736 15.4056 72.2663 15.6499 72.931 16.1385C73.5956 16.6215 73.9963 17.2635 74.133 18.0647H74.269C74.491 17.2635 74.9623 16.6215 75.6836 16.1385C76.4056 15.6499 77.2523 15.4056 78.2236 15.4056C79.4796 15.4056 80.4963 15.809 81.2749 16.6158C82.059 17.4226 82.451 18.4965 82.451 19.8374V28.6669H77.7463V21.0306C77.7463 20.4567 77.6016 20.0079 77.3116 19.684C77.0223 19.3544 76.633 19.1897 76.1443 19.1897C75.661 19.1897 75.2776 19.3544 74.9936 19.684C74.715 20.0079 74.5756 20.4567 74.5756 21.0306V28.6669H70.0756V21.0306C70.0756 20.4567 69.931 20.0079 69.6416 19.684C69.3516 19.3544 68.9623 19.1897 68.4736 19.1897C68.1496 19.1897 67.8716 19.2635 67.6383 19.4113C67.4056 19.559 67.2236 19.7721 67.093 20.0505C66.9683 20.3232 66.9056 20.6499 66.9056 21.0306V28.6669H62.201Z" fill="#003A7A"/>
<path d="M93.0197 28.0002V24.9699L98.8077 20.182C99.1917 19.8639 99.5197 19.5659 99.7924 19.2881C100.07 19.0053 100.282 18.7149 100.429 18.4169C100.58 18.1189 100.656 17.7881 100.656 17.4245C100.656 17.0255 100.57 16.6845 100.399 16.4017C100.232 16.1189 99.9997 15.9017 99.7017 15.7502C99.4037 15.5937 99.0604 15.5153 98.6717 15.5153C98.2824 15.5153 97.939 15.5937 97.641 15.7502C97.3484 15.9067 97.121 16.1365 96.959 16.4396C96.7977 16.7426 96.717 17.1113 96.717 17.5457H92.717C92.717 16.4547 92.9617 15.5153 93.4517 14.7275C93.9417 13.9396 94.6337 13.3335 95.5277 12.9093C96.4217 12.4851 97.4697 12.2729 98.6717 12.2729C99.9137 12.2729 100.99 12.4724 101.899 12.8714C102.813 13.2653 103.518 13.8209 104.012 14.5381C104.512 15.2553 104.762 16.0961 104.762 17.0608C104.762 17.6567 104.638 18.2502 104.391 18.8411C104.144 19.427 103.699 20.0759 103.058 20.7881C102.416 21.5002 101.505 22.3487 100.323 23.3335L98.8684 24.5457V24.6365H104.929V28.0002H93.0197ZM106.327 25.5759V22.3032L112.569 12.4851H115.539V16.8487H113.842L110.478 22.182V22.3032H119.69V25.5759H106.327ZM113.872 28.0002V24.5759L113.963 23.1517V12.4851H117.902V28.0002H113.872Z" fill="#003A7A"/>
<path d="M97.4804 7.27207C96.6997 6.49104 96.6937 5.21579 97.5491 4.51661C100.078 2.44901 103.083 1.02551 106.306 0.384304C110.186 -0.387401 114.208 0.0086654 117.862 1.52242C121.516 3.03617 124.64 5.59962 126.838 8.8886C129.036 12.1776 130.208 16.0444 130.208 20C130.208 23.9556 129.036 27.8224 126.838 31.1114C124.64 34.4004 121.516 36.9639 117.862 38.4776C114.208 39.9913 110.186 40.3874 106.306 39.6157C103.083 38.9745 100.078 37.551 97.5491 35.4834C96.6937 34.7842 96.6997 33.509 97.4804 32.7279C98.2617 31.9469 99.5211 31.9585 100.394 32.636C102.35 34.1555 104.64 35.2058 107.087 35.6925C110.19 36.3099 113.408 35.9931 116.331 34.7821C119.255 33.5711 121.754 31.5203 123.512 28.8891C125.27 26.2579 126.208 23.1645 126.208 20C126.208 16.8355 125.27 13.7421 123.512 11.1109C121.754 8.47967 119.255 6.42893 116.331 5.21793C113.408 4.00693 110.19 3.69008 107.087 4.30744C104.64 4.79422 102.35 5.84456 100.394 7.36401C99.5211 8.0416 98.2617 8.05314 97.4804 7.27207Z" fill="#003A7A"/>
</svg>
