<svg width="64" height="54" viewBox="0 0 64 54" fill="none" xmlns="http://www.w3.org/2000/svg">
<path d="M60.0564 0H3.94362C1.769 0 0 1.769 0 3.9435V42.0201C0 44.1946 1.769 45.9636 3.94362 45.9636H22.9219L22.1542 52.1048H18.9737C18.4559 52.1048 18.0362 52.5245 18.0362 53.0423C18.0362 53.56 18.4559 53.9798 18.9737 53.9798H45.0262C45.5441 53.9798 45.9637 53.56 45.9637 53.0423C45.9637 52.5245 45.5441 52.1048 45.0262 52.1048H41.8459L41.0781 45.9636H60.0564C62.2309 45.9636 64 44.1946 64 42.0201V3.9435C64 1.769 62.231 0 60.0564 0ZM24.0439 52.1048L24.8116 45.9636H28.262L28.6005 47.3174C28.9913 48.8802 30.3893 49.9716 32.0001 49.9716C33.611 49.9716 35.009 48.8802 35.3997 47.3174L35.7383 45.9636H39.1886L39.9561 52.1048H24.0439ZM30.1946 45.9636H33.8052L33.5805 46.8626C33.3989 47.5892 32.749 48.0966 31.9999 48.0966C31.2507 48.0966 30.601 47.5891 30.4193 46.8626L30.1946 45.9636ZM62.125 42.0201C62.125 43.1608 61.197 44.0886 60.0564 44.0886H3.94362C2.803 44.0886 1.875 43.1608 1.875 42.0201V3.9435C1.875 2.80287 2.803 1.875 3.94362 1.875H60.0564C61.197 1.875 62.125 2.80287 62.125 3.9435V42.0201Z" fill="#003A7A"/>
<path d="M53.0423 4.00813H4.94556C4.42768 4.00813 4.00806 4.42775 4.00806 4.94563V41.0181C4.00806 41.536 4.42768 41.9556 4.94556 41.9556H6.94968C7.46756 41.9556 7.88718 41.536 7.88718 41.0181C7.88731 40.5004 7.46756 40.0806 6.94981 40.0806H5.88318V5.88313H53.0423C53.5602 5.88313 53.9798 5.46338 53.9798 4.94563C53.9798 4.42775 53.5602 4.00813 53.0423 4.00813Z" fill="#003A7A"/>
<path d="M59.0545 4.00813H57.0504C56.5325 4.00813 56.1129 4.42775 56.1129 4.94563C56.1129 5.46338 56.5325 5.88313 57.0504 5.88313H58.117V40.0806H10.9578C10.4399 40.0806 10.0203 40.5004 10.0203 41.0181C10.0203 41.536 10.4399 41.9556 10.9578 41.9556H59.0544C59.5723 41.9556 59.9919 41.536 59.9919 41.0181V4.94563C59.992 4.42775 59.5723 4.00813 59.0545 4.00813Z" fill="#003A7A"/>
<path d="M44.7624 14.3879C44.5939 14.1725 44.3398 14.0415 44.0668 14.0291L22.0226 13.027C22.0053 13.0262 21.9884 13.0259 21.9711 13.0261C21.8406 12.5977 21.5648 12.2262 21.1916 11.9772L18.4919 10.1775C18.0612 9.89037 17.4791 10.0067 17.1919 10.4376C16.9048 10.8685 17.0212 11.4505 17.4519 11.7376L20.1514 13.5371C20.1642 13.5456 20.1736 13.5585 20.1778 13.5732L23.6164 25.6084C23.7237 25.9836 23.9002 26.3209 24.1268 26.6121L22.8687 29.1284C22.5658 29.734 22.5976 30.4394 22.9536 31.0154C23.0827 31.2242 23.2464 31.4021 23.4346 31.5446C23.1883 31.9745 23.0467 32.4717 23.0467 33.0017C23.0467 34.6237 24.3663 35.9432 25.9882 35.9432C27.6101 35.9432 28.9297 34.6236 28.9297 33.0017C28.9297 32.6256 28.8579 32.2661 28.7287 31.9352H37.2758C37.1466 32.2661 37.0748 32.6256 37.0748 33.0017C37.0748 34.6237 38.3944 35.9432 40.0163 35.9432C41.6382 35.9432 42.9578 34.6236 42.9578 33.0017C42.9578 32.5312 42.8462 32.0866 42.6489 31.6919C42.8382 31.5204 42.9578 31.2734 42.9578 30.9977C42.9578 30.48 42.5382 30.0602 42.0203 30.0602H24.6031C24.5897 30.0602 24.5671 30.0602 24.5482 30.0296C24.5293 29.9991 24.5394 29.979 24.5454 29.9669L25.7044 27.649C25.9403 27.7096 26.1861 27.7424 26.4376 27.7424C26.5534 27.7424 26.6704 27.7355 26.7882 27.7217L39.9614 26.172C41.6628 25.9717 43.0317 24.7087 43.3677 23.0287L44.9434 15.1495C44.9971 14.8814 44.9309 14.6032 44.7624 14.3879ZM40.0161 31.9355C40.6042 31.9355 41.0826 32.414 41.0826 33.002C41.0826 33.5901 40.6042 34.0685 40.0161 34.0685C39.4279 34.0685 38.9496 33.5901 38.9496 33.002C38.9496 32.4139 39.4279 31.9355 40.0161 31.9355ZM25.9879 31.9355C26.5761 31.9355 27.0544 32.4139 27.0544 33.002C27.0544 33.5901 26.5761 34.0685 25.9879 34.0685C25.3998 34.0685 24.9214 33.5901 24.9214 33.002C24.9214 32.4139 25.3998 31.9355 25.9879 31.9355ZM23.6889 19.0382L22.5141 14.9264L26.2622 15.0967L26.9121 19.0382H23.6889ZM26.5692 25.8596C26.0464 25.9211 25.5633 25.5987 25.4191 25.0934L24.2247 20.9132H27.2212L28.0088 25.6902L26.5692 25.8596ZM32.0646 25.2131L29.8731 25.471L29.1217 20.9134H32.0646V25.2131ZM32.0646 19.0382H28.8124L28.1769 15.1839L32.0646 15.3606V19.0382ZM36.8123 24.6545L33.9396 24.9925V20.9132H37.1509L36.8123 24.6545ZM37.3207 19.0382H33.9396V15.4457L37.6307 15.6135L37.3207 19.0382ZM41.5289 22.6612C41.3527 23.5422 40.6347 24.2049 39.7423 24.3099L38.7152 24.4307L39.0336 20.9134H41.8784L41.5289 22.6612ZM42.2536 19.0382H39.2034L39.5057 15.6987L42.8907 15.8526L42.2536 19.0382Z" fill="#003A7A"/>
</svg>
