<svg width="58" height="66" viewBox="0 0 58 66" fill="none" xmlns="http://www.w3.org/2000/svg">
<path d="M6.33037 35.9331L10.4214 38.2951L19.542 33.0293V22.4978L10.4214 17.2319L1.30078 22.4978V27.1536" stroke="#003A7A" stroke-width="2" stroke-miterlimit="10" stroke-linecap="round" stroke-linejoin="round"/>
<path d="M10.3931 38.1301V27.2468" stroke="#003A7A" stroke-width="2" stroke-miterlimit="10" stroke-linecap="round" stroke-linejoin="round"/>
<path d="M10.393 27.2468L1.41431 22.5569" stroke="#003A7A" stroke-width="2" stroke-miterlimit="10" stroke-linecap="round" stroke-linejoin="round"/>
<path d="M19.4332 22.5543L10.3931 27.2468" stroke="#003A7A" stroke-width="2" stroke-miterlimit="10" stroke-linecap="round" stroke-linejoin="round"/>
<path d="M10.4214 38.2991V48.8306L19.5419 54.0965L28.6626 48.8306V38.2991L19.5419 33.0333L10.4214 38.2991Z" stroke="#003A7A" stroke-width="2" stroke-miterlimit="10" stroke-linecap="round" stroke-linejoin="round"/>
<path d="M19.5134 53.9315V43.0481" stroke="#003A7A" stroke-width="2" stroke-miterlimit="10" stroke-linecap="round" stroke-linejoin="round"/>
<path d="M19.5134 43.0481L10.5347 38.3583" stroke="#003A7A" stroke-width="2" stroke-miterlimit="10" stroke-linecap="round" stroke-linejoin="round"/>
<path d="M28.5536 38.3557L19.5134 43.0481" stroke="#003A7A" stroke-width="2" stroke-miterlimit="10" stroke-linecap="round" stroke-linejoin="round"/>
<path d="M28.6626 38.2991V48.8306L37.7831 54.0965L46.9038 48.8306V38.2991L37.7831 33.0333L28.6626 38.2991Z" stroke="#003A7A" stroke-width="2" stroke-miterlimit="10" stroke-linecap="round" stroke-linejoin="round"/>
<path d="M37.7546 53.9315V43.0481" stroke="#003A7A" stroke-width="2" stroke-miterlimit="10" stroke-linecap="round" stroke-linejoin="round"/>
<path d="M37.7546 43.0481L28.7759 38.3583" stroke="#003A7A" stroke-width="2" stroke-miterlimit="10" stroke-linecap="round" stroke-linejoin="round"/>
<path d="M46.7948 38.3557L37.7546 43.0481" stroke="#003A7A" stroke-width="2" stroke-miterlimit="10" stroke-linecap="round" stroke-linejoin="round"/>
<path d="M19.542 22.4978V33.0293L28.6625 38.2951L37.7832 33.0293V22.4978L28.6625 17.2319L19.542 22.4978Z" stroke="#003A7A" stroke-width="2" stroke-miterlimit="10" stroke-linecap="round" stroke-linejoin="round"/>
<path d="M28.634 38.1301V27.2468" stroke="#003A7A" stroke-width="2" stroke-miterlimit="10" stroke-linecap="round" stroke-linejoin="round"/>
<path d="M28.6342 27.2468L19.6555 22.5569" stroke="#003A7A" stroke-width="2" stroke-miterlimit="10" stroke-linecap="round" stroke-linejoin="round"/>
<path d="M37.6742 22.5543L28.634 27.2468" stroke="#003A7A" stroke-width="2" stroke-miterlimit="10" stroke-linecap="round" stroke-linejoin="round"/>
<path d="M37.7832 22.4978V33.0293L46.9037 38.2951L56.0244 33.0293V22.4978L46.9037 17.2319L37.7832 22.4978Z" stroke="#003A7A" stroke-width="2" stroke-miterlimit="10" stroke-linecap="round" stroke-linejoin="round"/>
<path d="M46.8752 38.1301V27.2468" stroke="#003A7A" stroke-width="2" stroke-miterlimit="10" stroke-linecap="round" stroke-linejoin="round"/>
<path d="M46.8752 27.2468L37.8965 22.5569" stroke="#003A7A" stroke-width="2" stroke-miterlimit="10" stroke-linecap="round" stroke-linejoin="round"/>
<path d="M55.9154 22.5543L46.8752 27.2468" stroke="#003A7A" stroke-width="2" stroke-miterlimit="10" stroke-linecap="round" stroke-linejoin="round"/>
<path d="M28.6626 8.39824C30.169 8.39824 31.3901 7.17708 31.3901 5.6707C31.3901 4.16432 30.169 2.94315 28.6626 2.94315C27.1562 2.94315 25.9351 4.16432 25.9351 5.6707C25.9351 7.17708 27.1562 8.39824 28.6626 8.39824Z" stroke="#003A7A" stroke-width="2" stroke-miterlimit="10" stroke-linecap="round" stroke-linejoin="round"/>
<path d="M28.6626 16.7618V9.06009" stroke="#003A7A" stroke-width="2" stroke-miterlimit="10" stroke-linecap="round" stroke-linejoin="round"/>
<path d="M6.35645 6.45509C7.86283 6.45509 9.08399 5.23393 9.08399 3.72754C9.08399 2.22116 7.86283 1 6.35645 1C4.85007 1 3.62891 2.22116 3.62891 3.72754C3.62891 5.23393 4.85007 6.45509 6.35645 6.45509Z" stroke="#003A7A" stroke-width="2" stroke-miterlimit="10" stroke-linecap="round" stroke-linejoin="round"/>
<path d="M10.4809 17.1714V11.54L7.6438 6.43324" stroke="#003A7A" stroke-width="2" stroke-miterlimit="10" stroke-linecap="round" stroke-linejoin="round"/>
<path d="M51.0281 6.45509C52.5345 6.45509 53.7556 5.23393 53.7556 3.72754C53.7556 2.22116 52.5345 1 51.0281 1C49.5217 1 48.3005 2.22116 48.3005 3.72754C48.3005 5.23393 49.5217 6.45509 51.0281 6.45509Z" stroke="#003A7A" stroke-width="2" stroke-miterlimit="10" stroke-linecap="round" stroke-linejoin="round"/>
<path d="M46.9038 17.1714V11.54L49.7409 6.43324" stroke="#003A7A" stroke-width="2" stroke-miterlimit="10" stroke-linecap="round" stroke-linejoin="round"/>
<path d="M28.7219 63.0568C30.2283 63.0568 31.4495 61.8357 31.4495 60.3293C31.4495 58.8229 30.2283 57.6018 28.7219 57.6018C27.2155 57.6018 25.9944 58.8229 25.9944 60.3293C25.9944 61.8357 27.2155 63.0568 28.7219 63.0568Z" stroke="#003A7A" stroke-width="2" stroke-miterlimit="10" stroke-linecap="round" stroke-linejoin="round"/>
<path d="M28.7219 49.2382V56.9399" stroke="#003A7A" stroke-width="2" stroke-miterlimit="10" stroke-linecap="round" stroke-linejoin="round"/>
<path d="M51.0281 65C52.5345 65 53.7556 63.7788 53.7556 62.2725C53.7556 60.7661 52.5345 59.5449 51.0281 59.5449C49.5217 59.5449 48.3005 60.7661 48.3005 62.2725C48.3005 63.7788 49.5217 65 51.0281 65Z" stroke="#003A7A" stroke-width="2" stroke-miterlimit="10" stroke-linecap="round" stroke-linejoin="round"/>
<path d="M46.9038 48.8286V54.46L49.7409 59.5668" stroke="#003A7A" stroke-width="2" stroke-miterlimit="10" stroke-linecap="round" stroke-linejoin="round"/>
<path d="M6.35645 65C7.86283 65 9.08399 63.7788 9.08399 62.2725C9.08399 60.7661 7.86283 59.5449 6.35645 59.5449C4.85007 59.5449 3.62891 60.7661 3.62891 62.2725C3.62891 63.7788 4.85007 65 6.35645 65Z" stroke="#003A7A" stroke-width="2" stroke-miterlimit="10" stroke-linecap="round" stroke-linejoin="round"/>
<path d="M10.4809 48.8286V54.46L7.6438 59.5668" stroke="#003A7A" stroke-width="2" stroke-miterlimit="10" stroke-linecap="round" stroke-linejoin="round"/>
<circle cx="1.30081" cy="33" r="1.30081" fill="black"/>
</svg>
