<svg width="1001" height="717" viewBox="0 0 1001 717" fill="none" xmlns="http://www.w3.org/2000/svg">
<path opacity="0.3" d="M890.246 574.829C880.202 603.53 842.856 610.595 823.023 587.546L760.887 515.337C741.053 492.289 753.608 456.413 783.485 450.761L877.088 433.055C906.965 427.403 931.757 456.213 921.713 484.914L890.246 574.829Z" stroke="#003A7A"/>
<circle opacity="0.3" cx="519" cy="642" r="74.5" stroke="#003A7A"/>
<path opacity="0.3" d="M444.86 241.377C499.775 282.986 489.054 368.437 425.563 395.19L281.911 455.721C218.42 482.474 149.777 430.464 158.354 362.103L177.759 207.431C186.335 139.07 265.698 105.628 320.613 147.236L444.86 241.377Z" stroke="#003A7A"/>
<circle cx="613" cy="147" r="3" fill="#003A7A"/>
<circle cx="639" cy="147" r="3" fill="#003A7A"/>
<circle cx="665" cy="147" r="3" fill="#003A7A"/>
<circle cx="691" cy="147" r="3" fill="#003A7A"/>
<circle cx="613" cy="173" r="3" fill="#003A7A"/>
<circle cx="639" cy="173" r="3" fill="#003A7A"/>
<circle cx="665" cy="173" r="3" fill="#003A7A"/>
<circle cx="691" cy="173" r="3" fill="#003A7A"/>
<circle cx="613" cy="199" r="3" fill="#003A7A"/>
<circle cx="639" cy="199" r="3" fill="#003A7A"/>
<circle cx="665" cy="199" r="3" fill="#003A7A"/>
<circle cx="691" cy="199" r="3" fill="#003A7A"/>
<circle cx="613" cy="225" r="3" fill="#003A7A"/>
<circle cx="639" cy="225" r="3" fill="#003A7A"/>
<circle cx="665" cy="225" r="3" fill="#003A7A"/>
<circle cx="691" cy="225" r="3" fill="#003A7A"/>
<circle cx="613" cy="251" r="3" fill="#003A7A"/>
<circle cx="639" cy="251" r="3" fill="#003A7A"/>
<circle cx="665" cy="251" r="3" fill="#003A7A"/>
<circle cx="691" cy="251" r="3" fill="#003A7A"/>
<circle cx="613" cy="277" r="3" fill="#003A7A"/>
<circle cx="639" cy="277" r="3" fill="#003A7A"/>
<circle cx="665" cy="277" r="3" fill="#003A7A"/>
<circle cx="691" cy="277" r="3" fill="#003A7A"/>
<circle cx="613" cy="303" r="3" fill="#003A7A"/>
<circle cx="639" cy="303" r="3" fill="#003A7A"/>
<circle cx="665" cy="303" r="3" fill="#003A7A"/>
<circle cx="691" cy="303" r="3" fill="#003A7A"/>
<circle cx="613" cy="329" r="3" fill="#003A7A"/>
<circle cx="639" cy="329" r="3" fill="#003A7A"/>
<circle cx="665" cy="329" r="3" fill="#003A7A"/>
<circle cx="691" cy="329" r="3" fill="#003A7A"/>
</svg>
