<svg width="605" height="953" viewBox="0 0 605 953" fill="none" xmlns="http://www.w3.org/2000/svg">
<rect opacity="0.3" x="427.118" y="0.673843" width="199" height="199" rx="29.5" transform="rotate(27.3559 427.118 0.673843)" stroke="#003A7A"/>
<rect opacity="0.3" x="86.4654" y="447.683" width="99" height="99" rx="14.5" transform="rotate(60.0533 86.4654 447.683)" stroke="#003A7A"/>
<circle opacity="0.3" cx="511" cy="878" r="74.5" stroke="#003A7A"/>
<circle cx="474" cy="445" r="3" fill="#003A7A"/>
<circle cx="500" cy="445" r="3" fill="#003A7A"/>
<circle cx="526" cy="445" r="3" fill="#003A7A"/>
<circle cx="552" cy="445" r="3" fill="#003A7A"/>
<circle cx="474" cy="471" r="3" fill="#003A7A"/>
<circle cx="500" cy="471" r="3" fill="#003A7A"/>
<circle cx="526" cy="471" r="3" fill="#003A7A"/>
<circle cx="552" cy="471" r="3" fill="#003A7A"/>
<circle cx="474" cy="497" r="3" fill="#003A7A"/>
<circle cx="500" cy="497" r="3" fill="#003A7A"/>
<circle cx="526" cy="497" r="3" fill="#003A7A"/>
<circle cx="552" cy="497" r="3" fill="#003A7A"/>
<circle cx="474" cy="523" r="3" fill="#003A7A"/>
<circle cx="500" cy="523" r="3" fill="#003A7A"/>
<circle cx="526" cy="523" r="3" fill="#003A7A"/>
<circle cx="552" cy="523" r="3" fill="#003A7A"/>
<circle cx="474" cy="549" r="3" fill="#003A7A"/>
<circle cx="500" cy="549" r="3" fill="#003A7A"/>
<circle cx="526" cy="549" r="3" fill="#003A7A"/>
<circle cx="552" cy="549" r="3" fill="#003A7A"/>
<circle cx="474" cy="575" r="3" fill="#003A7A"/>
<circle cx="500" cy="575" r="3" fill="#003A7A"/>
<circle cx="526" cy="575" r="3" fill="#003A7A"/>
<circle cx="552" cy="575" r="3" fill="#003A7A"/>
<circle cx="474" cy="601" r="3" fill="#003A7A"/>
<circle cx="500" cy="601" r="3" fill="#003A7A"/>
<circle cx="526" cy="601" r="3" fill="#003A7A"/>
<circle cx="552" cy="601" r="3" fill="#003A7A"/>
<circle cx="474" cy="627" r="3" fill="#003A7A"/>
<circle cx="500" cy="627" r="3" fill="#003A7A"/>
<circle cx="526" cy="627" r="3" fill="#003A7A"/>
<circle cx="552" cy="627" r="3" fill="#003A7A"/>
</svg>
